#!OML:ASF E:\Steps\Project 1\Capture day 1\Session 2\Subject.ASF
:FULLY-SPECIFIED
:DEGREES
719
root 3.46594 15.9793 -9.68494 49.8611 81.381 26.3898
lowerback -26.2148 -1.65951 -8.59514
upperback 0.250573 1.15939 -3.24911
thorax 15.0254 0.109717 1.61271
lowerneck -15.1325 12.1295 22.2423
upperneck 44.46 26.3544 -12.0132
head 40.9297 13.8029 -3.1849
rclavicle -1.59028e-015 -1.98785e-014
rhumerus -32.6081 -12.245 -81.9573
rradius 36.3784
rwrist -5.17576
rhand 36.0425 -68.5591
rfingers 7.12502
rthumb 59.0416 -83.3077
lclavicle -1.59028e-015 -1.98785e-014
lhumerus -25.5138 12.9549 74.6236
lradius 11.3948
lwrist -16.9539
lhand -21.2787 -9.73048
lfingers 7.12502
lthumb 5.10529 20.188
rfemur -38.7985 -2.18705 17.6689
rtibia 68.5351
rfoot -7.42909 -8.43531
rtoes -38.6258
lfemur -31.7817 -6.95596 -25.0779
ltibia 14.8353
lfoot -6.39349 -0.793519
ltoes -38.0683
720
root 3.59649 15.9906 -9.68744 49.8608 81.7848 26.5344
lowerback -26.2027 -1.65972 -8.4034
upperback 0.326339 1.06975 -3.08441
thorax 15.1153 0.0670468 1.65936
lowerneck -15.0137 12.3826 22.089
upperneck 44.6188 26.5134 -11.7826
head 39.8318 13.686 -2.88118
rclavicle -9.74045e-015 4.45278e-014
rhumerus -33.0399 -12.3749 -81.4237
rradius 36.4487
rwrist -6.05099
rhand 35.5196 -69.0033
rfingers 7.12502
rthumb 58.5889 -84.1843
lclavicle -9.74045e-015 4.45278e-014
lhumerus -24.4881 11.9325 75.624
lradius 11.8296
lwrist -16.5701
lhand -21.3461 -9.58465
lfingers 7.12502
lthumb 5.0402 20.3354
rfemur -39.8678 -1.65462 17.6918
rtibia 68.4673
rfoot -9.11226 -7.98117
rtoes -35.5761
lfemur -30.9334 -6.81679 -25.0744
ltibia 14.5446
lfoot -6.67265 -1.20216
ltoes -37.6148
721
root 3.72457 16.0014 -9.6886 50.7519 82.3093 27.567
lowerback -26.1391 -1.71517 -8.27834
upperback 0.385291 0.920566 -2.91237
thorax 15.1606 -0.00499267 1.73025
lowerneck -14.8193 12.6998 21.9634
upperneck 44.7589 26.603 -11.4859
head 38.3052 13.54 -2.58239
rclavicle -5.56597e-015 8.66701e-014
rhumerus -33.5269 -12.6513 -80.8007
rradius 36.387
rwrist -6.53194
rhand 35.2148 -69.0367
rfingers 7.12502
rthumb 58.3242 -84.4636
lclavicle -5.56597e-015 8.66701e-014
lhumerus -23.4302 13.853 75.5476
lradius 11.7616
lwrist -19.1961
lhand -21.2624 -10.3495
lfingers 7.12502
lthumb 5.12098 19.5686
rfemur -40.9364 -1.378 17.6955
rtibia 68.1957
rfoot -10.5451 -7.54315
rtoes -33.8604
lfemur -30.1279 -7.16752 -24.9717
ltibia 14.2749
lfoot -6.9782 -1.28019
ltoes -38.0961
722
root 3.84847 16.0129 -9.68687 52.2188 82.8321 29.2011
lowerback -25.9756 -1.84251 -8.22466
upperback 0.434373 0.686591 -2.73753
thorax 15.1453 -0.117798 1.81331
lowerneck -14.4601 13.1163 21.8791
upperneck 44.7573 26.641 -11.1658
head 36.2076 13.3791 -2.33079
rclavicle 4.96962e-015 -5.40694e-014
rhumerus -33.8856 -13.4083 -80.1049
rradius 35.9831
rwrist -6.34489
rhand 34.8726 -68.9272
rfingers 7.12502
rthumb 58.0261 -84.6251
lclavicle 4.96962e-015 -5.40694e-014
lhumerus -22.4751 12.5164 76.4071
lradius 12.301
lwrist -18.1329
lhand -21.1067 -10.7244
lfingers 7.12502
lthumb 5.27128 19.19
rfemur -41.9834 -1.15521 17.7416
rtibia 67.7454
rfoot -11.7464 -7.70473
rtoes -32.73
lfemur -29.3511 -7.59971 -24.8642
ltibia 14.0775
lfoot -7.27241 -1.42474
ltoes -37.399
723
root 3.97133 16.023 -9.68797 53.307 83.4727 30.3687
lowerback -25.8938 -1.99875 -8.0338
upperback 0.46736 0.367741 -2.48919
thorax 15.1643 -0.263214 1.87154
lowerneck -14.0109 13.5599 21.6821
upperneck 44.5622 26.7096 -10.8466
head 33.9907 13.2368 -2.08066
rclavicle -3.37934e-015 -7.95139e-016
rhumerus -34.1903 -14.1907 -79.3777
rradius 35.5803
rwrist -6.19189
rhand 34.4189 -69.2267
rfingers 7.12502
rthumb 57.6298 -85.2756
lclavicle -3.37934e-015 -7.95139e-016
lhumerus -21.7197 9.33026 77.7796
lradius 13.3421
lwrist -14.9267
lhand -21.1056 -10.4593
lfingers 7.12502
lthumb 5.27238 19.4551
rfemur -43.1446 -1.2321 18.168
rtibia 66.925
rfoot -11.8766 -9.0585
rtoes -38.2104
lfemur -28.7508 -7.86733 -24.6449
ltibia 13.9882
lfoot -7.54361 -1.69926
ltoes -37.5678
